<svg xmlns="http://www.w3.org/2000/svg" viewBox="0 0 568.05 329.68"><defs><style>.cls-1{fill:#818cf8}.cls-2{fill:#4f46e5}.cls-3{fill:#fff}</style></defs><g id="Layer_2" data-name="Layer 2"><g id="Layer_1-2" data-name="Layer 1"><path d="M362.21,197.66l149,86c25.27,14.59,56.85-3.64,56.85-32.82v-172c0-29.17-31.58-47.4-56.85-32.82l-149,86C337,146.61,337,183.07,362.21,197.66Z" class="cls-1"/><rect width="411.86" height="329.68" class="cls-2" rx="88.14"/><path d="M99.83,245.87V197.72a118.91,118.91,0,0,1,8-41.91A183.49,183.49,0,0,1,129,115.47a156,156,0,0,1,28.53-31.65l41.9,24.74a215.32,215.32,0,0,0-20.39,41q-7.92,21.41-7.91,47.7v48.6Zm112.56,0V197.72a118.93,118.93,0,0,1,8-41.91,183.88,183.88,0,0,1,21.17-40.34,156.32,156.32,0,0,1,28.53-31.65L312,108.56a215.36,215.36,0,0,0-20.4,41q-7.9,21.41-7.91,47.7v48.6Z" class="cls-3"/></g></g></svg>