<svg xmlns="http://www.w3.org/2000/svg" xmlns:xlink="http://www.w3.org/1999/xlink" viewBox="0 0 578.05 339.68"><defs><style>.cls-1{fill:#818cf8;stroke:url(#New_Gradient_Swatch_1);}.cls-1,.cls-2,.cls-3{stroke-miterlimit:10;}.cls-1,.cls-2{stroke-width:10px;}.cls-2{fill:#4f46e5;stroke:url(#New_Gradient_Swatch_1-2);}.cls-3{fill:#fff;stroke-width:4px;stroke:url(#New_Gradient_Swatch_1-3);}</style><linearGradient id="New_Gradient_Swatch_1" x1="414.55" y1="80.73" x2="592.76" y2="258.95" gradientUnits="userSpaceOnUse"><stop offset="0" stop-color="#fff"/><stop offset="0.5" stop-color="#fff" stop-opacity="0"/><stop offset="0.99" stop-color="#fff"/></linearGradient><linearGradient id="New_Gradient_Swatch_1-2" x1="47.82" y1="6.74" x2="374.03" y2="332.95" xlink:href="#New_Gradient_Swatch_1"/><linearGradient id="New_Gradient_Swatch_1-3" x1="102.83" y1="169.62" x2="319.83" y2="169.62" xlink:href="#New_Gradient_Swatch_1"/></defs><g id="Layer_2" data-name="Layer 2"><g id="Layer_1-2" data-name="Layer 1"><path class="cls-1" d="M367.21,202.66l149,86c25.27,14.59,56.85-3.64,56.85-32.82v-172c0-29.17-31.58-47.4-56.85-32.82l-149,86C342,151.61,342,188.07,367.21,202.66Z"/><rect class="cls-2" x="5" y="5" width="411.86" height="329.68" rx="88.14"/><path class="cls-3" d="M104.83,250.87V202.72a118.91,118.91,0,0,1,8-41.91A183.49,183.49,0,0,1,134,120.47a156,156,0,0,1,28.53-31.65l41.9,24.74a215.32,215.32,0,0,0-20.39,41q-7.92,21.41-7.91,47.7v48.6Zm112.56,0V202.72a118.93,118.93,0,0,1,8-41.91,183.88,183.88,0,0,1,21.17-40.34,156.32,156.32,0,0,1,28.53-31.65L317,113.56a215.36,215.36,0,0,0-20.4,41q-7.9,21.41-7.91,47.7v48.6Z"/></g></g></svg>