<svg xmlns="http://www.w3.org/2000/svg" xmlns:xlink="http://www.w3.org/1999/xlink" viewBox="0 0 726.71 99.29"><defs><style>.cls-1,.cls-2,.cls-5{fill:#fff;}.cls-2{opacity:0.5;}.cls-3{fill:#818cf8;stroke:url(#New_Gradient_Swatch_1);}.cls-3,.cls-4,.cls-5{stroke-miterlimit:10;}.cls-3,.cls-4{stroke-width:4px;}.cls-4{fill:#4f46e5;stroke:url(#New_Gradient_Swatch_1-2);}.cls-5{stroke-width:2px;stroke:url(#New_Gradient_Swatch_1-3);}</style><linearGradient id="New_Gradient_Swatch_1" x1="119.98" y1="23.5" x2="172.27" y2="75.79" gradientUnits="userSpaceOnUse"><stop offset="0" stop-color="#fff"/><stop offset="0.5" stop-color="#fff" stop-opacity="0"/><stop offset="0.99" stop-color="#fff"/></linearGradient><linearGradient id="New_Gradient_Swatch_1-2" x1="13.98" y1="2.11" x2="109.06" y2="97.18" xlink:href="#New_Gradient_Swatch_1"/><linearGradient id="New_Gradient_Swatch_1-3" x1="29.85" y1="49.54" x2="93.59" y2="49.54" xlink:href="#New_Gradient_Swatch_1"/></defs><g id="Layer_2" data-name="Layer 2"><g id="Layer_1-2" data-name="Layer 1"><path class="cls-1" d="M211.44,17.63l16.16,50.8h.62l16.2-50.8h15.67L237,84.5H218.82L195.74,17.63Z"/><path class="cls-1" d="M270.25,27.88a7.48,7.48,0,0,1-5.31-2.07,6.69,6.69,0,0,1,0-9.92,7.82,7.82,0,0,1,10.62,0,6.69,6.69,0,0,1,0,9.92A7.48,7.48,0,0,1,270.25,27.88Zm-7,56.62V34.35h13.91V84.5Z"/><path class="cls-1" d="M302.15,85.31a18.76,18.76,0,0,1-10.33-3,20.09,20.09,0,0,1-7.31-8.72,33.23,33.23,0,0,1-2.7-14.15q0-8.62,2.78-14.35A20,20,0,0,1,292,36.55a19,19,0,0,1,10.14-2.86,15.57,15.57,0,0,1,7,1.43,14,14,0,0,1,4.57,3.52,18.74,18.74,0,0,1,2.66,4.13h.42V17.63h13.88V84.5H317v-8h-.59a18,18,0,0,1-2.76,4.13A13.9,13.9,0,0,1,309,84,15.9,15.9,0,0,1,302.15,85.31Zm4.41-11.06a8.93,8.93,0,0,0,5.7-1.85,11.69,11.69,0,0,0,3.59-5.17,22.06,22.06,0,0,0,1.26-7.81,22.22,22.22,0,0,0-1.24-7.77,11.16,11.16,0,0,0-3.6-5.09,9.93,9.93,0,0,0-11.49.06,11.44,11.44,0,0,0-3.56,5.16A22.31,22.31,0,0,0,296,59.42a22.29,22.29,0,0,0,1.23,7.72,11.61,11.61,0,0,0,3.56,5.23A8.88,8.88,0,0,0,306.56,74.25Z"/><path class="cls-1" d="M360.34,85.48A26.64,26.64,0,0,1,347,82.33a21.39,21.39,0,0,1-8.57-9,29.49,29.49,0,0,1-3-13.73,29.34,29.34,0,0,1,3-13.58A22.21,22.21,0,0,1,346.94,37a24.52,24.52,0,0,1,12.84-3.27A26.45,26.45,0,0,1,369,35.28,20.88,20.88,0,0,1,376.55,40a21.7,21.7,0,0,1,5,7.95,31.7,31.7,0,0,1,1.8,11.18V63H341V54.36h29.25A10.67,10.67,0,0,0,369,49a9.56,9.56,0,0,0-3.61-3.64A10.52,10.52,0,0,0,360,44.08a10.69,10.69,0,0,0-5.6,1.45,10.35,10.35,0,0,0-3.8,3.89,11.19,11.19,0,0,0-1.41,5.4V63a14,14,0,0,0,1.39,6.44,9.92,9.92,0,0,0,3.94,4.17,11.88,11.88,0,0,0,6,1.47,13,13,0,0,0,4.24-.65,8.76,8.76,0,0,0,3.3-2,8.52,8.52,0,0,0,2.09-3.2l12.86.85a17.42,17.42,0,0,1-4,8.08,20.09,20.09,0,0,1-7.77,5.36A29.24,29.24,0,0,1,360.34,85.48Z"/><path class="cls-1" d="M410.49,85.48a25.56,25.56,0,0,1-13.14-3.25,22,22,0,0,1-8.54-9.08,29.16,29.16,0,0,1-3-13.53,29.31,29.31,0,0,1,3-13.6,22.07,22.07,0,0,1,8.54-9.08,28.21,28.21,0,0,1,26.29,0A22,22,0,0,1,432.17,46a29.19,29.19,0,0,1,3,13.6,29,29,0,0,1-3,13.53,22,22,0,0,1-8.53,9.08A25.57,25.57,0,0,1,410.49,85.48Zm.07-10.78a8.64,8.64,0,0,0,5.78-2,12.26,12.26,0,0,0,3.51-5.41,23.76,23.76,0,0,0,1.19-7.8,23.76,23.76,0,0,0-1.19-7.8,12.29,12.29,0,0,0-3.51-5.42,8.55,8.55,0,0,0-5.78-2,8.78,8.78,0,0,0-5.86,2,12,12,0,0,0-3.56,5.42,23.5,23.5,0,0,0-1.19,7.8,23.5,23.5,0,0,0,1.19,7.8,11.92,11.92,0,0,0,3.56,5.41A8.87,8.87,0,0,0,410.56,74.7Z"/><path class="cls-2" d="M454.05,17.63V84.5H439.92V17.63Z"/><path class="cls-2" d="M474.76,55.51v29H460.85V34.35h13.26V43.2h.58a14.1,14.1,0,0,1,5.59-6.94,16.94,16.94,0,0,1,9.5-2.57A17.68,17.68,0,0,1,498.89,36a15.6,15.6,0,0,1,6,6.51,22,22,0,0,1,2.15,10.08V84.5H493.17V55.05a10.14,10.14,0,0,0-2.35-7.2,8.46,8.46,0,0,0-6.56-2.6,10,10,0,0,0-4.95,1.21A8.43,8.43,0,0,0,476,50,12.24,12.24,0,0,0,474.76,55.51Z"/><path class="cls-2" d="M558.35,34.35,540.82,84.5H525.14L507.61,34.35H522.3l10.42,35.88h.52l10.38-35.88Z"/><path class="cls-2" d="M581.86,85.48a25.56,25.56,0,0,1-13.14-3.25,22,22,0,0,1-8.54-9.08,29.16,29.16,0,0,1-3-13.53,29.31,29.31,0,0,1,3-13.6,22.07,22.07,0,0,1,8.54-9.08,28.19,28.19,0,0,1,26.28,0A22,22,0,0,1,603.54,46a29.32,29.32,0,0,1,3,13.6,29.17,29.17,0,0,1-3,13.53A22,22,0,0,1,595,82.23,25.56,25.56,0,0,1,581.86,85.48Zm.07-10.78a8.64,8.64,0,0,0,5.78-2,12.26,12.26,0,0,0,3.51-5.41,23.76,23.76,0,0,0,1.19-7.8,23.76,23.76,0,0,0-1.19-7.8,12.29,12.29,0,0,0-3.51-5.42,8.55,8.55,0,0,0-5.78-2,8.78,8.78,0,0,0-5.86,2,12,12,0,0,0-3.56,5.42,23.5,23.5,0,0,0-1.19,7.8,23.5,23.5,0,0,0,1.19,7.8,11.92,11.92,0,0,0,3.56,5.41A8.87,8.87,0,0,0,581.93,74.7Z"/><path class="cls-2" d="M618,27.88a7.44,7.44,0,0,1-5.3-2.07,6.67,6.67,0,0,1,0-9.92,7.81,7.81,0,0,1,10.61,0,6.69,6.69,0,0,1,0,9.92A7.48,7.48,0,0,1,618,27.88ZM611,84.5V34.35h13.9V84.5Z"/><path class="cls-2" d="M654.09,85.48a25.59,25.59,0,0,1-13.24-3.28,21.74,21.74,0,0,1-8.48-9.13,29.43,29.43,0,0,1-3-13.45,29.26,29.26,0,0,1,3-13.53A22,22,0,0,1,640.9,37,25.22,25.22,0,0,1,654,33.69a26.12,26.12,0,0,1,11.49,2.39,19.17,19.17,0,0,1,7.8,6.69,19.67,19.67,0,0,1,3.17,10.12H663.37a10.23,10.23,0,0,0-2.93-6,8.46,8.46,0,0,0-6.18-2.31,9.38,9.38,0,0,0-5.64,1.75,11.36,11.36,0,0,0-3.73,5.08,21.48,21.48,0,0,0-1.34,8.06,22.36,22.36,0,0,0,1.32,8.16,11.21,11.21,0,0,0,3.74,5.13,10,10,0,0,0,9.94.79,8.5,8.5,0,0,0,3.17-2.86,11.11,11.11,0,0,0,1.65-4.53h13.12a20.59,20.59,0,0,1-3.12,10.11A18.93,18.93,0,0,1,665.68,83,25.63,25.63,0,0,1,654.09,85.48Z"/><path class="cls-2" d="M703.69,85.48a26.57,26.57,0,0,1-13.3-3.15,21.33,21.33,0,0,1-8.57-9,29.49,29.49,0,0,1-3-13.73,29.34,29.34,0,0,1,3-13.58A22.19,22.19,0,0,1,690.29,37a24.58,24.58,0,0,1,12.85-3.27,26.39,26.39,0,0,1,9.25,1.59A20.71,20.71,0,0,1,719.9,40a21.59,21.59,0,0,1,5,7.95,31.94,31.94,0,0,1,1.79,11.18V63H684.37V54.36h29.25A10.68,10.68,0,0,0,712.31,49a9.54,9.54,0,0,0-3.6-3.64,10.57,10.57,0,0,0-5.34-1.32,10.69,10.69,0,0,0-5.6,1.45,10.35,10.35,0,0,0-3.8,3.89,11,11,0,0,0-1.41,5.4V63A13.91,13.91,0,0,0,694,69.45a9.84,9.84,0,0,0,3.93,4.17,11.88,11.88,0,0,0,6,1.47,13.07,13.07,0,0,0,4.25-.65,8.72,8.72,0,0,0,3.29-2,8.4,8.4,0,0,0,2.09-3.2l12.87.85a17.61,17.61,0,0,1-4,8.08,20.24,20.24,0,0,1-7.77,5.36A29.3,29.3,0,0,1,703.69,85.48Z"/><path class="cls-3" d="M106.69,59.13,149.75,84a11,11,0,0,0,16.43-9.48V24.78a11,11,0,0,0-16.43-9.48L106.69,40.16A11,11,0,0,0,106.69,59.13Z"/><rect class="cls-4" x="2" y="2" width="119.04" height="95.29" rx="25.47"/><path class="cls-5" d="M30.85,73.06V59.15A34.58,34.58,0,0,1,33.17,47a53.65,53.65,0,0,1,6.12-11.66,45.17,45.17,0,0,1,8.25-9.14l12.11,7.15a62.31,62.31,0,0,0-5.89,11.85A39.42,39.42,0,0,0,51.47,59v14Zm32.54,0V59.15A34.35,34.35,0,0,1,65.71,47a52.79,52.79,0,0,1,6.12-11.66,44.84,44.84,0,0,1,8.24-9.14l12.12,7.15a62.36,62.36,0,0,0-5.9,11.85A39.65,39.65,0,0,0,84,59v14Z"/></g></g></svg>