<svg xmlns="http://www.w3.org/2000/svg" viewBox="0 0 580.63 311.4"><defs><style>.cls-1,.cls-2{fill:#fff}.cls-2{opacity:.5}.cls-3{fill:#818cf8}.cls-4{fill:#4f46e5}</style></defs><g id="Layer_2" data-name="Layer 2"><g id="Layer_1-2" data-name="Layer 1"><path d="M17.17,237.21l17.67,55.55h.68l17.71-55.55H70.37L45.16,310.33H25.24L0,237.21Z" class="cls-1"/><path d="M81.48,248.42a8.15,8.15,0,0,1-5.8-2.26,7.32,7.32,0,0,1,0-10.86,8.57,8.57,0,0,1,11.6,0,7.32,7.32,0,0,1,0,10.86A8.17,8.17,0,0,1,81.48,248.42Zm-7.64,61.91V255.49H89.05v54.84Z" class="cls-1"/><path d="M116.37,311.22a20.45,20.45,0,0,1-11.3-3.23,21.94,21.94,0,0,1-8-9.53A36.47,36.47,0,0,1,94.12,283q0-9.42,3-15.69a21.91,21.91,0,0,1,8.08-9.39,20.72,20.72,0,0,1,11.09-3.12,17.07,17.07,0,0,1,7.69,1.55,15.28,15.28,0,0,1,5,3.86,19.69,19.69,0,0,1,2.91,4.51h.47V237.21h15.17v73.12h-15v-8.78h-.65a19.48,19.48,0,0,1-3,4.51,15.28,15.28,0,0,1-5,3.7A17.37,17.37,0,0,1,116.37,311.22Zm4.82-12.1a9.71,9.71,0,0,0,6.23-2,12.65,12.65,0,0,0,3.92-5.66,27.15,27.15,0,0,0,0-17,12.15,12.15,0,0,0-3.93-5.57,10,10,0,0,0-6.24-2,9.84,9.84,0,0,0-6.32,2,12.32,12.32,0,0,0-3.89,5.64,24.22,24.22,0,0,0-1.33,8.35,24.61,24.61,0,0,0,1.34,8.45,12.86,12.86,0,0,0,3.89,5.71A9.76,9.76,0,0,0,121.19,299.12Z" class="cls-1"/><path d="M180,311.4A29.16,29.16,0,0,1,165.44,308a23.36,23.36,0,0,1-9.37-9.79,35.62,35.62,0,0,1,0-29.86,24.23,24.23,0,0,1,9.27-10,26.88,26.88,0,0,1,14-3.57,28.88,28.88,0,0,1,10.12,1.73,22.82,22.82,0,0,1,8.21,5.19,23.74,23.74,0,0,1,5.48,8.7,34.67,34.67,0,0,1,2,12.23v4.17h-46.3v-9.42h32a11.68,11.68,0,0,0-1.43-5.82,10.35,10.35,0,0,0-3.95-4,11.41,11.41,0,0,0-5.83-1.45,11.74,11.74,0,0,0-6.13,1.59,11.36,11.36,0,0,0-4.15,4.25,12,12,0,0,0-1.54,5.91v9a15.25,15.25,0,0,0,1.52,7,10.79,10.79,0,0,0,4.3,4.57,13,13,0,0,0,6.6,1.61,14.35,14.35,0,0,0,4.65-.72,9.59,9.59,0,0,0,3.6-2.14,9.39,9.39,0,0,0,2.29-3.5l14.06.93a19.15,19.15,0,0,1-4.37,8.84,21.9,21.9,0,0,1-8.5,5.85A31.75,31.75,0,0,1,180,311.4Z" class="cls-1"/><path d="M234.84,311.4a27.84,27.84,0,0,1-14.37-3.55,24,24,0,0,1-9.34-9.93,35.17,35.17,0,0,1,0-29.66,24,24,0,0,1,9.34-9.93,30.86,30.86,0,0,1,28.74,0,24.06,24.06,0,0,1,9.34,9.93,35.17,35.17,0,0,1,0,29.66,24.06,24.06,0,0,1-9.34,9.93A27.87,27.87,0,0,1,234.84,311.4Zm.07-11.78a9.41,9.41,0,0,0,6.32-2.16,13.3,13.3,0,0,0,3.84-5.91,28.63,28.63,0,0,0,0-17.06,13.42,13.42,0,0,0-3.84-5.93,9.37,9.37,0,0,0-6.32-2.18,9.63,9.63,0,0,0-6.41,2.18,13.25,13.25,0,0,0-3.89,5.93,28.63,28.63,0,0,0,0,17.06,13.13,13.13,0,0,0,3.89,5.91A9.67,9.67,0,0,0,234.91,299.62Z" class="cls-1"/><path d="M282.47,237.21v73.12H267V237.21Z" class="cls-2"/><path d="M305.11,278.63v31.7h-15.2V255.49H304.4v9.68H305a15.43,15.43,0,0,1,6.11-7.59,18.54,18.54,0,0,1,10.39-2.8,19.26,19.26,0,0,1,10,2.5,17,17,0,0,1,6.6,7.12,24,24,0,0,1,2.36,11v34.92H325.25v-32.2c0-3.36-.83-6-2.57-7.87a9.24,9.24,0,0,0-7.18-2.84,10.84,10.84,0,0,0-5.41,1.32,9.13,9.13,0,0,0-3.64,3.84A13.34,13.34,0,0,0,305.11,278.63Z" class="cls-2"/><path d="M396.52,255.49l-19.17,54.84H360.21L341,255.49h16.07l11.38,39.24h.58l11.35-39.24Z" class="cls-2"/><path d="M422.23,311.4a27.9,27.9,0,0,1-14.37-3.55,24,24,0,0,1-9.33-9.93,35.07,35.07,0,0,1,0-29.66,24,24,0,0,1,9.33-9.93,30.86,30.86,0,0,1,28.74,0,24,24,0,0,1,9.34,9.93,35.07,35.07,0,0,1,0,29.66,24,24,0,0,1-9.34,9.93A27.84,27.84,0,0,1,422.23,311.4Zm.08-11.78a9.43,9.43,0,0,0,6.32-2.16,13.37,13.37,0,0,0,3.83-5.91,28.43,28.43,0,0,0,0-17.06,13.49,13.49,0,0,0-3.83-5.93,9.39,9.39,0,0,0-6.32-2.18,9.61,9.61,0,0,0-6.41,2.18,13.09,13.09,0,0,0-3.89,5.93,28.43,28.43,0,0,0,0,17.06,13,13,0,0,0,3.89,5.91A9.65,9.65,0,0,0,422.31,299.62Z" class="cls-2"/><path d="M461.76,248.42a8.17,8.17,0,0,1-5.8-2.26,7.32,7.32,0,0,1,0-10.86,8.57,8.57,0,0,1,11.6,0,7.3,7.3,0,0,1,0,10.86A8.14,8.14,0,0,1,461.76,248.42Zm-7.64,61.91V255.49h15.21v54.84Z" class="cls-2"/><path d="M501.22,311.4a27.92,27.92,0,0,1-14.48-3.59,23.8,23.8,0,0,1-9.28-10,35.1,35.1,0,0,1,0-29.5,24,24,0,0,1,9.3-10,27.47,27.47,0,0,1,14.35-3.59,28.71,28.71,0,0,1,12.57,2.6,21.09,21.09,0,0,1,8.53,7.32,21.53,21.53,0,0,1,3.46,11.07H511.36a11.16,11.16,0,0,0-3.2-6.62,9.27,9.27,0,0,0-6.76-2.52,10.2,10.2,0,0,0-6.16,1.91,12.38,12.38,0,0,0-4.09,5.55,23.8,23.8,0,0,0-1.46,8.82,24.58,24.58,0,0,0,1.44,8.93,12.29,12.29,0,0,0,4.09,5.6,10.84,10.84,0,0,0,10.87.86,9.17,9.17,0,0,0,3.47-3.12,12.07,12.07,0,0,0,1.8-4.95h14.35a22.45,22.45,0,0,1-3.41,11,20.7,20.7,0,0,1-8.41,7.44A28,28,0,0,1,501.22,311.4Z" class="cls-2"/><path d="M555.46,311.4A29.16,29.16,0,0,1,540.91,308a23.3,23.3,0,0,1-9.37-9.79,35.52,35.52,0,0,1,0-29.86,24.28,24.28,0,0,1,9.26-10,26.9,26.9,0,0,1,14.05-3.57A28.88,28.88,0,0,1,565,256.51a22.94,22.94,0,0,1,8.22,5.19,23.74,23.74,0,0,1,5.48,8.7,34.9,34.9,0,0,1,2,12.23v4.17H534.32v-9.42h32a11.57,11.57,0,0,0-1.43-5.82,10.32,10.32,0,0,0-3.94-4,11.48,11.48,0,0,0-5.84-1.45,11.68,11.68,0,0,0-6.12,1.59,11.46,11.46,0,0,0-4.16,4.25,12.15,12.15,0,0,0-1.54,5.91v9a15.25,15.25,0,0,0,1.52,7,10.85,10.85,0,0,0,4.3,4.57,13,13,0,0,0,6.61,1.61,14.25,14.25,0,0,0,4.64-.72,9.63,9.63,0,0,0,3.61-2.14,9.25,9.25,0,0,0,2.28-3.5l14.07.93a19.27,19.27,0,0,1-4.38,8.84,21.93,21.93,0,0,1-8.49,5.85A31.83,31.83,0,0,1,555.46,311.4Z" class="cls-2"/><path d="M333.25,108.55l81.82,47.24a20.81,20.81,0,0,0,31.22-18V43.29a20.82,20.82,0,0,0-31.22-18L333.25,72.5A20.82,20.82,0,0,0,333.25,108.55Z" class="cls-3"/><rect width="226.18" height="181.05" x="134.34" class="cls-4" rx="48.4"/><path d="M189.16,135V108.58a65.2,65.2,0,0,1,4.41-23,100.58,100.58,0,0,1,11.62-22.16A86,86,0,0,1,220.86,46l23,13.59a117.89,117.89,0,0,0-11.2,22.52,75,75,0,0,0-4.35,26.2V135ZM251,135V108.58a65.4,65.4,0,0,1,4.4-23A101,101,0,0,1,267,63.41,86,86,0,0,1,282.68,46l23,13.59a118.48,118.48,0,0,0-11.2,22.52,75.27,75.27,0,0,0-4.34,26.2V135Z" class="cls-1"/></g></g></svg>