<svg xmlns="http://www.w3.org/2000/svg" viewBox="0 0 724.71 95.29"><defs><style>.cls-1,.cls-2{fill:#fff}.cls-2{opacity:.5}.cls-3{fill:#818cf8}.cls-4{fill:#4f46e5}</style></defs><g id="Layer_2" data-name="Layer 2"><g id="Layer_1-2" data-name="Layer 1"><path d="M209.44,15.63l16.16,50.8h.62l16.2-50.8h15.67L235,82.5H216.82L193.74,15.63Z" class="cls-1"/><path d="M268.25,25.88a7.48,7.48,0,0,1-5.31-2.07,6.69,6.69,0,0,1,0-9.92,7.82,7.82,0,0,1,10.62,0,6.69,6.69,0,0,1,0,9.92A7.48,7.48,0,0,1,268.25,25.88Zm-7,56.62V32.35h13.91V82.5Z" class="cls-1"/><path d="M300.15,83.31a18.76,18.76,0,0,1-10.33-3,20.09,20.09,0,0,1-7.31-8.72,33.23,33.23,0,0,1-2.7-14.15q0-8.62,2.78-14.35A20,20,0,0,1,290,34.55a19,19,0,0,1,10.14-2.86,15.57,15.57,0,0,1,7,1.43,14,14,0,0,1,4.57,3.52,18.74,18.74,0,0,1,2.66,4.13h.42V15.63h13.88V82.5H315v-8h-.59a18,18,0,0,1-2.76,4.13A13.9,13.9,0,0,1,307,82,15.9,15.9,0,0,1,300.15,83.31Zm4.41-11.06a8.93,8.93,0,0,0,5.7-1.85,11.69,11.69,0,0,0,3.59-5.17,22.06,22.06,0,0,0,1.26-7.81,22.22,22.22,0,0,0-1.24-7.77,11.16,11.16,0,0,0-3.6-5.09,9.93,9.93,0,0,0-11.49.06,11.44,11.44,0,0,0-3.56,5.16A22.31,22.31,0,0,0,294,57.42a22.29,22.29,0,0,0,1.23,7.72,11.61,11.61,0,0,0,3.56,5.23A8.88,8.88,0,0,0,304.56,72.25Z" class="cls-1"/><path d="M358.34,83.48A26.64,26.64,0,0,1,345,80.33a21.39,21.39,0,0,1-8.57-9,29.49,29.49,0,0,1-3-13.73,29.34,29.34,0,0,1,3-13.58A22.21,22.21,0,0,1,344.94,35a24.52,24.52,0,0,1,12.84-3.27A26.45,26.45,0,0,1,367,33.28,20.88,20.88,0,0,1,374.55,38a21.7,21.7,0,0,1,5,7.95,31.7,31.7,0,0,1,1.8,11.18V61H339V52.36h29.25A10.67,10.67,0,0,0,367,47a9.56,9.56,0,0,0-3.61-3.64A10.52,10.52,0,0,0,358,42.08a10.69,10.69,0,0,0-5.6,1.45,10.35,10.35,0,0,0-3.8,3.89,11.19,11.19,0,0,0-1.41,5.4V61a14,14,0,0,0,1.39,6.44,9.92,9.92,0,0,0,3.94,4.17,11.88,11.88,0,0,0,6,1.47,13,13,0,0,0,4.24-.65,8.76,8.76,0,0,0,3.3-2,8.52,8.52,0,0,0,2.09-3.2l12.86.85a17.42,17.42,0,0,1-4,8.08,20.09,20.09,0,0,1-7.77,5.36A29.24,29.24,0,0,1,358.34,83.48Z" class="cls-1"/><path d="M408.49,83.48a25.56,25.56,0,0,1-13.14-3.25,22,22,0,0,1-8.54-9.08,29.16,29.16,0,0,1-3-13.53,29.31,29.31,0,0,1,3-13.6,22.07,22.07,0,0,1,8.54-9.08,28.21,28.21,0,0,1,26.29,0A22,22,0,0,1,430.17,44a29.19,29.19,0,0,1,3,13.6,29,29,0,0,1-3,13.53,22,22,0,0,1-8.53,9.08A25.57,25.57,0,0,1,408.49,83.48Zm.07-10.78a8.64,8.64,0,0,0,5.78-2,12.26,12.26,0,0,0,3.51-5.41,23.76,23.76,0,0,0,1.19-7.8,23.76,23.76,0,0,0-1.19-7.8,12.29,12.29,0,0,0-3.51-5.42,8.55,8.55,0,0,0-5.78-2,8.78,8.78,0,0,0-5.86,2,12,12,0,0,0-3.56,5.42,23.5,23.5,0,0,0-1.19,7.8,23.5,23.5,0,0,0,1.19,7.8,11.92,11.92,0,0,0,3.56,5.41A8.87,8.87,0,0,0,408.56,72.7Z" class="cls-1"/><path d="M452.05,15.63V82.5H437.92V15.63Z" class="cls-2"/><path d="M472.76,53.51v29H458.85V32.35h13.26V41.2h.58a14.1,14.1,0,0,1,5.59-6.94,16.94,16.94,0,0,1,9.5-2.57A17.68,17.68,0,0,1,496.89,34a15.6,15.6,0,0,1,6,6.51,22,22,0,0,1,2.15,10.08V82.5H491.17V53.05a10.14,10.14,0,0,0-2.35-7.2,8.46,8.46,0,0,0-6.56-2.6,10,10,0,0,0-4.95,1.21A8.43,8.43,0,0,0,474,48,12.24,12.24,0,0,0,472.76,53.51Z" class="cls-2"/><path d="M556.35,32.35,538.82,82.5H523.14L505.61,32.35H520.3l10.42,35.88h.52l10.38-35.88Z" class="cls-2"/><path d="M579.86,83.48a25.56,25.56,0,0,1-13.14-3.25,22,22,0,0,1-8.54-9.08,29.16,29.16,0,0,1-3-13.53,29.31,29.31,0,0,1,3-13.6,22.07,22.07,0,0,1,8.54-9.08,28.19,28.19,0,0,1,26.28,0A22,22,0,0,1,601.54,44a29.32,29.32,0,0,1,3,13.6,29.17,29.17,0,0,1-3,13.53A22,22,0,0,1,593,80.23,25.56,25.56,0,0,1,579.86,83.48Zm.07-10.78a8.64,8.64,0,0,0,5.78-2,12.26,12.26,0,0,0,3.51-5.41,23.76,23.76,0,0,0,1.19-7.8,23.76,23.76,0,0,0-1.19-7.8,12.29,12.29,0,0,0-3.51-5.42,8.55,8.55,0,0,0-5.78-2,8.78,8.78,0,0,0-5.86,2,12,12,0,0,0-3.56,5.42,23.5,23.5,0,0,0-1.19,7.8,23.5,23.5,0,0,0,1.19,7.8,11.92,11.92,0,0,0,3.56,5.41A8.87,8.87,0,0,0,579.93,72.7Z" class="cls-2"/><path d="M616,25.88a7.44,7.44,0,0,1-5.3-2.07,6.67,6.67,0,0,1,0-9.92,7.81,7.81,0,0,1,10.61,0,6.69,6.69,0,0,1,0,9.92A7.48,7.48,0,0,1,616,25.88ZM609,82.5V32.35h13.9V82.5Z" class="cls-2"/><path d="M652.09,83.48a25.59,25.59,0,0,1-13.24-3.28,21.74,21.74,0,0,1-8.48-9.13,29.43,29.43,0,0,1-3-13.45,29.26,29.26,0,0,1,3-13.53A22,22,0,0,1,638.9,35,25.22,25.22,0,0,1,652,31.69a26.12,26.12,0,0,1,11.49,2.39,19.17,19.17,0,0,1,7.8,6.69,19.67,19.67,0,0,1,3.17,10.12H661.37a10.23,10.23,0,0,0-2.93-6,8.46,8.46,0,0,0-6.18-2.31,9.38,9.38,0,0,0-5.64,1.75,11.36,11.36,0,0,0-3.73,5.08,21.48,21.48,0,0,0-1.34,8.06,22.36,22.36,0,0,0,1.32,8.16,11.21,11.21,0,0,0,3.74,5.13,10,10,0,0,0,9.94.79,8.5,8.5,0,0,0,3.17-2.86,11.11,11.11,0,0,0,1.65-4.53h13.12a20.59,20.59,0,0,1-3.12,10.11A18.93,18.93,0,0,1,663.68,81,25.63,25.63,0,0,1,652.09,83.48Z" class="cls-2"/><path d="M701.69,83.48a26.57,26.57,0,0,1-13.3-3.15,21.33,21.33,0,0,1-8.57-9,29.49,29.49,0,0,1-3-13.73,29.34,29.34,0,0,1,3-13.58A22.19,22.19,0,0,1,688.29,35a24.58,24.58,0,0,1,12.85-3.27,26.39,26.39,0,0,1,9.25,1.59A20.71,20.71,0,0,1,717.9,38a21.59,21.59,0,0,1,5,7.95,31.94,31.94,0,0,1,1.79,11.18V61H682.37V52.36h29.25A10.68,10.68,0,0,0,710.31,47a9.54,9.54,0,0,0-3.6-3.64,10.57,10.57,0,0,0-5.34-1.32,10.69,10.69,0,0,0-5.6,1.45,10.35,10.35,0,0,0-3.8,3.89,11,11,0,0,0-1.41,5.4V61A13.91,13.91,0,0,0,692,67.45a9.84,9.84,0,0,0,3.93,4.17,11.88,11.88,0,0,0,6,1.47,13.07,13.07,0,0,0,4.25-.65,8.72,8.72,0,0,0,3.29-2,8.4,8.4,0,0,0,2.09-3.2l12.87.85a17.61,17.61,0,0,1-4,8.08,20.24,20.24,0,0,1-7.77,5.36A29.3,29.3,0,0,1,701.69,83.48Z" class="cls-2"/><path d="M104.69,57.13,147.75,82a11,11,0,0,0,16.43-9.48V22.78a11,11,0,0,0-16.43-9.48L104.69,38.16A11,11,0,0,0,104.69,57.13Z" class="cls-3"/><rect width="119.04" height="95.29" class="cls-4" rx="25.47"/><path d="M28.85,71.06V57.15A34.58,34.58,0,0,1,31.17,45a53.65,53.65,0,0,1,6.12-11.66,45.17,45.17,0,0,1,8.25-9.14l12.11,7.15a62.31,62.31,0,0,0-5.89,11.85A39.42,39.42,0,0,0,49.47,57v14Zm32.54,0V57.15A34.35,34.35,0,0,1,63.71,45a52.79,52.79,0,0,1,6.12-11.66,44.84,44.84,0,0,1,8.24-9.14l12.12,7.15a62.36,62.36,0,0,0-5.9,11.85A39.65,39.65,0,0,0,82,57v14Z" class="cls-1"/></g></g></svg>